<svg version="1.1" id="Layer_1" xmlns="http://www.w3.org/2000/svg" xmlns:xlink="http://www.w3.org/1999/xlink" x="0px" y="0px"
	 width="100%" viewBox="0 0 500 500" enable-background="new 0 0 500 500" xml:space="preserve">
<path fill="#FFFFFF" opacity="1.000000" stroke="none" 
	d="
M271.000000,501.000000 
	C180.666687,501.000000 90.833374,501.000000 1.000048,501.000000 
	C1.000032,334.333405 1.000032,167.666794 1.000016,1.000138 
	C167.666565,1.000092 334.333130,1.000092 500.999756,1.000046 
	C500.999847,167.666519 500.999847,334.333038 500.999939,500.999786 
	C424.500000,501.000000 348.000000,501.000000 271.000000,501.000000 
M143.114395,213.796082 
	C139.742188,213.881546 136.369995,213.967026 132.442673,213.974136 
	C132.373215,214.309418 132.303772,214.644714 132.070099,215.906891 
	C132.070099,222.510742 132.070099,229.114594 132.070099,235.729065 
	C125.762375,235.729065 119.912163,235.729065 113.770248,235.729065 
	C113.770248,228.272629 113.770248,221.174911 113.770248,214.086990 
	C109.412376,214.086990 105.367371,214.086990 101.254562,214.086990 
	C101.254562,232.792831 101.254562,251.179489 101.254562,269.768188 
	C105.506599,269.768188 109.559052,269.768188 114.148933,269.768188 
	C114.148933,262.190704 114.148933,254.836914 114.148933,247.469696 
	C120.323067,247.469696 125.958138,247.469696 132.106171,247.469696 
	C132.106171,254.978073 132.106171,262.371643 132.106171,269.813507 
	C136.415268,269.813507 140.211502,269.813507 144.526352,269.901886 
	C144.610367,269.606842 144.694382,269.311768 144.939972,268.089722 
	C144.903854,257.705841 144.867737,247.321945 145.548645,236.563080 
	C150.155090,244.649872 154.625427,252.819031 159.441299,260.779114 
	C161.141846,263.589905 161.049805,265.700378 159.473740,268.492157 
	C156.003159,274.639893 152.925842,281.009583 149.405121,287.837311 
	C152.611069,287.837311 154.966339,287.551025 157.224808,287.896881 
	C161.931458,288.617615 164.198944,286.498657 166.244781,282.373260 
	C173.110016,268.529755 180.441589,254.917313 187.613754,241.226456 
	C188.246735,240.018158 189.018768,238.882706 189.726212,237.713425 
	C190.029617,237.807404 190.333023,237.901398 190.636429,237.995377 
	C190.636429,248.586243 190.636429,259.177124 190.636429,269.747986 
	C194.853699,269.747986 198.618683,269.747986 202.760834,269.747986 
	C202.760834,264.025696 202.685165,258.559174 202.779892,253.095596 
	C202.899582,246.193115 206.454330,243.464493 213.184326,244.975555 
	C214.242050,245.213058 215.279663,245.540085 216.404236,245.846909 
	C218.029968,242.493271 219.519485,239.420624 221.078262,236.205093 
	C214.186142,232.162262 208.473495,233.978424 203.160538,239.096222 
	C202.839722,237.468506 202.605637,236.280914 202.349747,234.982666 
	C194.709351,234.982666 187.382339,234.793365 180.079590,235.129898 
	C178.467560,235.204193 176.320633,236.795547 175.491989,238.284790 
	C173.001038,242.761612 171.039383,247.532928 168.628647,252.710373 
	C167.366119,250.529739 166.026993,248.950775 165.469299,247.132156 
	C162.302017,236.803894 155.560364,232.736908 144.959320,234.064362 
	C144.899002,227.705872 144.838699,221.347397 144.892578,214.432373 
	C144.595993,214.303024 144.299423,214.173691 143.114395,213.796082 
M355.899017,251.499542 
	C355.899017,257.590820 355.899017,263.682129 355.899017,269.725586 
	C360.220215,269.725586 363.962097,269.725586 368.256439,269.725586 
	C368.256439,265.311462 368.256439,261.175812 368.256439,256.126709 
	C372.852692,260.811951 376.078491,265.973633 380.724121,268.299530 
	C385.212463,270.546692 391.164124,269.871185 396.473022,270.479523 
	C396.721100,269.817017 396.969208,269.154480 397.217285,268.491974 
	C391.307770,262.898590 385.398285,257.305176 378.508148,250.783630 
	C384.126221,245.651993 389.572052,240.677704 396.197601,234.625824 
	C389.600250,235.036499 383.964691,234.045197 379.718567,236.028549 
	C375.460999,238.017273 372.589630,242.973694 369.110718,246.629440 
	C368.672394,246.390625 368.234100,246.151810 367.795776,245.912994 
	C367.795776,234.402374 367.795776,222.891754 367.795776,211.446899 
	C363.571381,211.446899 359.964478,211.446899 355.899017,211.446899 
	C355.899017,224.612961 355.899017,237.556290 355.899017,251.499542 
M334.012207,234.078766 
	C331.459991,235.194214 328.907745,236.309662 326.850555,237.208755 
	C323.040070,232.952148 318.196045,235.934830 313.850037,234.799988 
	C313.850037,246.827744 313.850037,258.271698 313.850037,269.766113 
	C317.816742,269.766113 321.577332,269.766113 325.751099,269.766113 
	C325.751099,263.740662 325.714569,257.949310 325.761719,252.158646 
	C325.805878,246.732620 328.791595,243.212234 333.077026,243.405716 
	C336.947418,243.580460 339.040894,246.604233 339.067596,252.165833 
	C339.095978,258.081970 339.073975,263.998322 339.073975,269.670654 
	C343.550690,269.670654 347.302765,269.670654 351.015808,269.670654 
	C351.074432,269.002411 351.128296,268.672394 351.128693,268.342346 
	C351.136139,262.346710 351.142303,256.351074 351.138458,250.355438 
	C351.131042,238.705063 346.700745,234.264038 334.012207,234.078766 
M234.938919,254.107208 
	C242.341843,254.107208 249.744766,254.107208 257.117981,254.107208 
	C257.219147,242.158478 251.889954,235.438797 241.855072,234.117630 
	C231.439789,232.746384 221.966293,238.938095 219.815598,248.522156 
	C217.767807,257.647766 222.930405,266.775940 231.912537,269.945435 
	C240.898605,273.116302 254.126709,269.171295 256.082703,261.716858 
	C252.216049,259.754730 249.016479,256.280975 243.881302,260.428253 
	C240.389786,263.248077 234.099930,260.989594 232.713272,257.380676 
	C232.405228,256.579010 233.563431,255.213974 234.938919,254.107208 
M260.118134,269.207245 
	C270.781799,269.207245 281.445465,269.207245 291.949402,269.207245 
	C291.949402,265.958771 291.949402,262.529449 291.949402,258.741425 
	C285.582642,258.741425 279.487518,258.741425 272.961151,258.741425 
	C272.961151,243.630646 272.961151,228.887817 272.961151,214.063629 
	C268.460022,214.063629 264.411285,214.063629 260.060760,214.063629 
	C260.060760,232.320267 260.060760,250.283340 260.118134,269.207245 
M307.951294,243.548309 
	C307.951294,240.775284 307.951294,238.002243 307.951294,235.266052 
	C303.634796,235.266052 299.887573,235.266052 296.179993,235.266052 
	C296.179993,246.943420 296.179993,258.345612 296.179993,269.725403 
	C300.203491,269.725403 303.944580,269.725403 307.951294,269.725403 
	C307.951294,261.145233 307.951294,252.841827 307.951294,243.548309 
M294.979797,219.724136 
	C296.496246,222.194809 297.528015,225.353470 299.704742,226.886993 
	C301.086548,227.860519 304.980621,227.204391 306.287781,225.859634 
	C307.938232,224.161743 309.211304,220.694565 308.596100,218.590240 
	C307.977814,216.475433 305.064514,214.156464 302.757446,213.608215 
	C298.952637,212.704071 296.283569,215.188370 294.979797,219.724136 
z"/>
<path fill="#070707" opacity="1.000000" stroke="none" 
	d="
M144.998398,235.000580 
	C155.560364,232.736908 162.302017,236.803894 165.469299,247.132156 
	C166.026993,248.950775 167.366119,250.529739 168.628647,252.710373 
	C171.039383,247.532928 173.001038,242.761612 175.491989,238.284790 
	C176.320633,236.795547 178.467560,235.204193 180.079590,235.129898 
	C187.382339,234.793365 194.709351,234.982666 202.349747,234.982666 
	C202.605637,236.280914 202.839722,237.468506 203.160538,239.096222 
	C208.473495,233.978424 214.186142,232.162262 221.078262,236.205093 
	C219.519485,239.420624 218.029968,242.493271 216.404236,245.846909 
	C215.279663,245.540085 214.242050,245.213058 213.184326,244.975555 
	C206.454330,243.464493 202.899582,246.193115 202.779892,253.095596 
	C202.685165,258.559174 202.760834,264.025696 202.760834,269.747986 
	C198.618683,269.747986 194.853699,269.747986 190.636429,269.747986 
	C190.636429,259.177124 190.636429,248.586243 190.636429,237.995377 
	C190.333023,237.901398 190.029617,237.807404 189.726212,237.713425 
	C189.018768,238.882706 188.246735,240.018158 187.613754,241.226456 
	C180.441589,254.917313 173.110016,268.529755 166.244781,282.373260 
	C164.198944,286.498657 161.931458,288.617615 157.224808,287.896881 
	C154.966339,287.551025 152.611069,287.837311 149.405121,287.837311 
	C152.925842,281.009583 156.003159,274.639893 159.473740,268.492157 
	C161.049805,265.700378 161.141846,263.589905 159.441299,260.779114 
	C154.625427,252.819031 150.155090,244.649872 144.985779,236.595093 
	C144.614731,236.084930 144.806564,235.542755 144.998398,235.000580 
z"/>
<path fill="#030303" opacity="1.000000" stroke="none" 
	d="
M144.978851,234.532471 
	C144.806564,235.542755 144.614731,236.084930 144.627258,236.782593 
	C144.867737,247.321945 144.903854,257.705841 144.691376,268.643616 
	C144.237259,269.360107 144.092239,269.565430 144.007721,269.813507 
	C140.211502,269.813507 136.415268,269.813507 132.106171,269.813507 
	C132.106171,262.371643 132.106171,254.978073 132.106171,247.469696 
	C125.958138,247.469696 120.323067,247.469696 114.148933,247.469696 
	C114.148933,254.836914 114.148933,262.190704 114.148933,269.768188 
	C109.559052,269.768188 105.506599,269.768188 101.254562,269.768188 
	C101.254562,251.179489 101.254562,232.792831 101.254562,214.086990 
	C105.367371,214.086990 109.412376,214.086990 113.770248,214.086990 
	C113.770248,221.174911 113.770248,228.272629 113.770248,235.729065 
	C119.912163,235.729065 125.762375,235.729065 132.070099,235.729065 
	C132.070099,229.114594 132.070099,222.510742 132.328064,215.333679 
	C132.797455,214.567627 132.934708,214.331635 132.997787,214.052490 
	C136.369995,213.967026 139.742188,213.881546 143.635834,214.116150 
	C144.305374,214.686661 144.512421,214.870895 144.778397,214.988907 
	C144.838699,221.347397 144.899002,227.705872 144.978851,234.532471 
z"/>
<path fill="#040404" opacity="1.000000" stroke="none" 
	d="
M355.899017,250.999588 
	C355.899017,237.556290 355.899017,224.612961 355.899017,211.446899 
	C359.964478,211.446899 363.571381,211.446899 367.795776,211.446899 
	C367.795776,222.891754 367.795776,234.402374 367.795776,245.912994 
	C368.234100,246.151810 368.672394,246.390625 369.110718,246.629440 
	C372.589630,242.973694 375.460999,238.017273 379.718567,236.028549 
	C383.964691,234.045197 389.600250,235.036499 396.197601,234.625824 
	C389.572052,240.677704 384.126221,245.651993 378.508148,250.783630 
	C385.398285,257.305176 391.307770,262.898590 397.217285,268.491974 
	C396.969208,269.154480 396.721100,269.817017 396.473022,270.479523 
	C391.164124,269.871185 385.212463,270.546692 380.724121,268.299530 
	C376.078491,265.973633 372.852692,260.811951 368.256439,256.126709 
	C368.256439,261.175812 368.256439,265.311462 368.256439,269.725586 
	C363.962097,269.725586 360.220215,269.725586 355.899017,269.725586 
	C355.899017,263.682129 355.899017,257.590820 355.899017,250.999588 
z"/>
<path fill="#050505" opacity="1.000000" stroke="none" 
	d="
M334.429321,234.045959 
	C346.700745,234.264038 351.131042,238.705063 351.138458,250.355438 
	C351.142303,256.351074 351.136139,262.346710 351.128693,268.342346 
	C351.128296,268.672394 351.074432,269.002411 351.015808,269.670654 
	C347.302765,269.670654 343.550690,269.670654 339.073975,269.670654 
	C339.073975,263.998322 339.095978,258.081970 339.067596,252.165833 
	C339.040894,246.604233 336.947418,243.580460 333.077026,243.405716 
	C328.791595,243.212234 325.805878,246.732620 325.761719,252.158646 
	C325.714569,257.949310 325.751099,263.740662 325.751099,269.766113 
	C321.577332,269.766113 317.816742,269.766113 313.850037,269.766113 
	C313.850037,258.271698 313.850037,246.827744 313.850037,234.799988 
	C318.196045,235.934830 323.040070,232.952148 326.850555,237.208755 
	C328.907745,236.309662 331.459991,235.194214 334.429321,234.045959 
z"/>
<path fill="#060606" opacity="1.000000" stroke="none" 
	d="
M234.492737,254.107773 
	C233.563431,255.213974 232.405228,256.579010 232.713272,257.380676 
	C234.099930,260.989594 240.389786,263.248077 243.881302,260.428253 
	C249.016479,256.280975 252.216049,259.754730 256.082703,261.716858 
	C254.126709,269.171295 240.898605,273.116302 231.912537,269.945435 
	C222.930405,266.775940 217.767807,257.647766 219.815598,248.522156 
	C221.966293,238.938095 231.439789,232.746384 241.855072,234.117630 
	C251.889954,235.438797 257.219147,242.158478 257.117981,254.107208 
	C249.744766,254.107208 242.341843,254.107208 234.492737,254.107773 
M235.189240,247.569656 
	C238.522964,247.569656 241.856689,247.569656 245.190414,247.569656 
	C245.417465,246.912338 245.644516,246.255005 245.871567,245.597687 
	C243.862610,244.356186 241.936752,242.319336 239.821167,242.098267 
	C237.731323,241.879868 235.222733,243.160599 233.336502,244.433624 
	C232.187668,245.208954 231.218674,247.436996 235.189240,247.569656 
z"/>
<path fill="#030303" opacity="1.000000" stroke="none" 
	d="
M260.089447,268.726837 
	C260.060760,250.283340 260.060760,232.320267 260.060760,214.063629 
	C264.411285,214.063629 268.460022,214.063629 272.961151,214.063629 
	C272.961151,228.887817 272.961151,243.630646 272.961151,258.741425 
	C279.487518,258.741425 285.582642,258.741425 291.949402,258.741425 
	C291.949402,262.529449 291.949402,265.958771 291.949402,269.207245 
	C281.445465,269.207245 270.781799,269.207245 260.089447,268.726837 
z"/>
<path fill="#030303" opacity="1.000000" stroke="none" 
	d="
M307.951294,244.043365 
	C307.951294,252.841827 307.951294,261.145233 307.951294,269.725403 
	C303.944580,269.725403 300.203491,269.725403 296.179993,269.725403 
	C296.179993,258.345612 296.179993,246.943420 296.179993,235.266052 
	C299.887573,235.266052 303.634796,235.266052 307.951294,235.266052 
	C307.951294,238.002243 307.951294,240.775284 307.951294,244.043365 
z"/>
<path fill="#070707" opacity="1.000000" stroke="none" 
	d="
M295.022217,219.331543 
	C296.283569,215.188370 298.952637,212.704071 302.757446,213.608215 
	C305.064514,214.156464 307.977814,216.475433 308.596100,218.590240 
	C309.211304,220.694565 307.938232,224.161743 306.287781,225.859634 
	C304.980621,227.204391 301.086548,227.860519 299.704742,226.886993 
	C297.528015,225.353470 296.496246,222.194809 295.022217,219.331543 
z"/>
<path fill="#070707" opacity="1.000000" stroke="none" 
	d="
M132.720230,214.013306 
	C132.934708,214.331635 132.797455,214.567627 132.410187,214.870239 
	C132.303772,214.644714 132.373215,214.309418 132.720230,214.013306 
z"/>
<path fill="#070707" opacity="1.000000" stroke="none" 
	d="
M144.835480,214.710632 
	C144.512421,214.870895 144.305374,214.686661 144.080048,214.240295 
	C144.299423,214.173691 144.595993,214.303024 144.835480,214.710632 
z"/>
<path fill="#070707" opacity="1.000000" stroke="none" 
	d="
M144.267029,269.857697 
	C144.092239,269.565430 144.237259,269.360107 144.610596,269.107117 
	C144.694382,269.311768 144.610367,269.606842 144.267029,269.857697 
z"/>
<path fill="#DEDEDE" opacity="1.000000" stroke="none" 
	d="
M234.781067,247.567902 
	C231.218674,247.436996 232.187668,245.208954 233.336502,244.433624 
	C235.222733,243.160599 237.731323,241.879868 239.821167,242.098267 
	C241.936752,242.319336 243.862610,244.356186 245.871567,245.597687 
	C245.644516,246.255005 245.417465,246.912338 245.190414,247.569656 
	C241.856689,247.569656 238.522964,247.569656 234.781067,247.567902 
z"/>
</svg>