<svg version="1.1" id="Layer_1" xmlns="http://www.w3.org/2000/svg" xmlns:xlink="http://www.w3.org/1999/xlink" x="0px" y="0px"
	 width="100%" viewBox="0 0 500 500" enable-background="new 0 0 500 500" xml:space="preserve">
<path fill="#1B1B1B" opacity="1.000000" stroke="none" 
	d="
M462.000000,501.000000 
	C308.000031,501.000000 154.500076,501.000000 1.000082,501.000000 
	C1.000055,334.333405 1.000055,167.666824 1.000027,1.000172 
	C167.666550,1.000115 334.333099,1.000115 500.999756,1.000057 
	C500.999817,167.666519 500.999817,334.333038 500.999908,500.999756 
	C488.166656,501.000000 475.333344,501.000000 462.000000,501.000000 
M153.111526,213.729874 
	C149.741150,213.816956 146.370773,213.904053 142.427704,213.931702 
	C142.355942,214.281250 142.284164,214.630814 142.055252,215.908310 
	C142.055252,222.513824 142.055252,229.119324 142.055252,235.832428 
	C135.815918,235.832428 130.082336,235.832428 123.873734,235.832428 
	C123.873734,228.375351 123.873734,221.136261 123.873734,213.868973 
	C119.444649,213.868973 115.494621,213.868973 111.292679,213.868973 
	C111.292679,232.583313 111.292679,251.120804 111.292679,269.714478 
	C115.602844,269.714478 119.660072,269.714478 124.103043,269.714478 
	C124.103043,262.167816 124.103043,254.901642 124.103043,247.742538 
	C130.243042,247.742538 135.985489,247.742538 142.163269,247.742538 
	C142.163269,255.268433 142.163269,262.511841 142.163269,269.822723 
	C146.407547,269.822723 150.207520,269.822723 154.528870,269.907959 
	C154.619553,269.610687 154.710236,269.313446 154.955383,268.088165 
	C154.927383,257.709167 154.899399,247.330139 155.582367,236.574356 
	C160.167725,244.675507 164.610901,252.862366 169.414597,260.831909 
	C171.124695,263.669067 170.938889,265.761169 169.375839,268.539185 
	C165.916306,274.687744 162.862213,281.064423 159.369354,287.881744 
	C162.597397,287.881744 164.956284,287.603271 167.223862,287.939880 
	C171.891312,288.632782 174.207840,286.605377 176.263550,282.459778 
	C183.202286,268.466827 190.613480,254.708008 197.865906,240.871109 
	C198.397171,239.857483 199.103348,238.935516 199.728226,237.970947 
	C200.017426,238.082932 200.306625,238.194916 200.595825,238.306915 
	C200.595825,248.758514 200.595825,259.210114 200.595825,269.635498 
	C204.868713,269.635498 208.745972,269.635498 212.824020,269.635498 
	C212.824020,263.778656 212.739777,258.295074 212.846024,252.815231 
	C212.969864,246.428177 216.283463,243.781479 222.568024,244.918228 
	C223.811890,245.143219 225.017120,245.581680 226.395401,245.964874 
	C228.057388,242.555420 229.604294,239.382034 231.192429,236.124069 
	C224.179688,232.347626 218.531693,233.801300 213.158005,239.061890 
	C212.904373,237.402252 212.728149,236.249176 212.533112,234.973053 
	C204.628494,234.973053 197.136063,234.808441 189.662857,235.114197 
	C188.196823,235.174179 186.246826,236.748810 185.482193,238.149948 
	C183.017090,242.667053 181.001282,247.429352 178.561371,252.632111 
	C177.258804,250.311905 176.065628,248.819077 175.524384,247.118729 
	C172.282623,236.934250 165.682281,232.600357 154.984711,234.049652 
	C154.923447,227.696548 154.862183,221.343445 154.899200,214.413940 
	C154.599014,214.269806 154.298828,214.125687 153.111526,213.729874 
M392.663879,248.276718 
	C396.873077,244.166611 401.082306,240.056503 405.388916,235.851303 
	C393.171021,231.933929 385.257263,237.577164 378.736420,246.743713 
	C378.458710,246.417877 378.181030,246.092041 377.903320,245.766205 
	C377.903320,234.373260 377.903320,222.980331 377.903320,211.430695 
	C373.724304,211.430695 369.991882,211.430695 366.190918,211.430695 
	C366.190918,231.068359 366.190918,250.437149 366.190918,269.699341 
	C370.273163,269.699341 374.016449,269.699341 378.138245,269.699341 
	C378.138245,265.345856 378.138245,261.288483 378.138245,255.880066 
	C386.121796,265.295502 393.415863,274.016541 407.389923,268.858978 
	C401.370026,262.997589 395.494629,257.276917 389.098145,251.048889 
	C390.262573,250.190399 391.206879,249.494202 392.663879,248.276718 
M339.368103,244.450165 
	C345.863647,242.569992 348.939392,244.733765 349.028961,251.395325 
	C349.111023,257.497253 349.046356,263.601196 349.046356,269.821564 
	C353.351013,269.821564 357.117981,269.821564 360.896851,269.821564 
	C361.008667,269.154022 361.160095,268.666260 361.161652,268.178040 
	C361.182678,261.517670 361.235107,254.856766 361.175262,248.196945 
	C361.098969,239.706238 356.745728,234.575851 348.254883,234.237244 
	C344.211182,234.075989 340.093872,235.761826 336.259308,236.559113 
	C332.624146,233.368790 328.061890,235.523209 323.904480,235.127396 
	C323.904480,247.057495 323.904480,258.437592 323.904480,269.689514 
	C328.025421,269.689514 331.777374,269.689514 335.816467,269.689514 
	C335.816467,263.574097 335.541962,257.752991 335.948273,251.979843 
	C336.116638,249.587250 337.741577,247.297165 339.368103,244.450165 
M243.442139,234.573257 
	C233.985535,237.829590 228.476242,245.304245 229.235733,253.847580 
	C229.997101,262.412079 237.056091,269.787292 245.560455,270.903564 
	C255.036591,272.147400 263.327271,268.429901 266.054260,261.714294 
	C262.032715,259.237518 258.673340,256.939972 253.330231,260.519653 
	C248.378250,263.837280 242.909393,260.113861 242.319748,253.996674 
	C250.589142,253.996674 258.822083,253.996674 267.211365,253.996674 
	C267.549316,247.469269 266.251831,242.015839 261.261261,237.994415 
	C256.227081,233.937866 250.373077,233.423370 243.442139,234.573257 
M282.975861,226.507690 
	C282.975861,222.279373 282.975861,218.051071 282.975861,213.946899 
	C278.282959,213.946899 274.353333,213.946899 270.328491,213.946899 
	C270.328491,232.713791 270.328491,251.224594 270.328491,269.640991 
	C281.145081,269.640991 291.668762,269.640991 301.989227,269.640991 
	C301.989227,265.857941 301.989227,262.439880 301.989227,258.663849 
	C295.594086,258.663849 289.507568,258.663849 282.975861,258.663849 
	C282.975861,248.028000 282.975861,237.767166 282.975861,226.507690 
M305.880127,236.679733 
	C305.880127,247.712006 305.880127,258.744263 305.880127,269.727753 
	C310.223602,269.727753 313.952484,269.727753 317.740906,269.727753 
	C317.740906,258.094574 317.740906,246.737076 317.740906,234.702911 
	C313.638855,235.054779 309.800262,235.384064 305.880127,236.679733 
M305.536926,223.567291 
	C307.425568,226.740585 310.275208,228.871872 313.758728,227.287735 
	C315.963379,226.285156 318.355530,223.690033 318.808411,221.436356 
	C319.214630,219.415054 317.671692,216.031708 315.908722,214.818207 
	C314.151581,213.608734 310.740417,213.566696 308.611023,214.413086 
	C305.109192,215.804977 304.359558,219.221039 305.536926,223.567291 
M345.218170,278.835083 
	C344.864197,279.883698 344.676147,281.029694 344.127563,281.964050 
	C341.752045,286.010254 345.082672,286.798767 347.571869,287.589966 
	C348.420441,287.859680 349.794891,286.474915 350.929047,285.846130 
	C350.183044,285.185699 349.522614,284.369629 348.671021,283.901123 
	C347.380463,283.191193 345.956970,282.722900 344.589966,282.151917 
	C345.122620,281.552917 345.655304,280.953918 346.187958,280.354919 
	C347.149292,279.984283 348.110626,279.613678 349.071960,279.243073 
	C349.016174,278.972748 348.960388,278.702393 348.904602,278.432068 
	C347.873871,278.432068 346.843140,278.432068 345.218170,278.835083 
z"/>
<path fill="#F9F9F9" opacity="1.000000" stroke="none" 
	d="
M155.046173,234.982498 
	C165.682281,232.600357 172.282623,236.934250 175.524384,247.118729 
	C176.065628,248.819077 177.258804,250.311905 178.561371,252.632111 
	C181.001282,247.429352 183.017090,242.667053 185.482193,238.149948 
	C186.246826,236.748810 188.196823,235.174179 189.662857,235.114197 
	C197.136063,234.808441 204.628494,234.973053 212.533112,234.973053 
	C212.728149,236.249176 212.904373,237.402252 213.158005,239.061890 
	C218.531693,233.801300 224.179688,232.347626 231.192429,236.124069 
	C229.604294,239.382034 228.057388,242.555420 226.395401,245.964874 
	C225.017120,245.581680 223.811890,245.143219 222.568024,244.918228 
	C216.283463,243.781479 212.969864,246.428177 212.846024,252.815231 
	C212.739777,258.295074 212.824020,263.778656 212.824020,269.635498 
	C208.745972,269.635498 204.868713,269.635498 200.595825,269.635498 
	C200.595825,259.210114 200.595825,248.758514 200.595825,238.306915 
	C200.306625,238.194916 200.017426,238.082932 199.728226,237.970947 
	C199.103348,238.935516 198.397171,239.857483 197.865906,240.871109 
	C190.613480,254.708008 183.202286,268.466827 176.263550,282.459778 
	C174.207840,286.605377 171.891312,288.632782 167.223862,287.939880 
	C164.956284,287.603271 162.597397,287.881744 159.369354,287.881744 
	C162.862213,281.064423 165.916306,274.687744 169.375839,268.539185 
	C170.938889,265.761169 171.124695,263.669067 169.414597,260.831909 
	C164.610901,252.862366 160.167725,244.675507 155.038147,236.595261 
	C154.678009,236.071609 154.862106,235.527054 155.046173,234.982498 
z"/>
<path fill="#FDFDFD" opacity="1.000000" stroke="none" 
	d="
M155.015442,234.516083 
	C154.862106,235.527054 154.678009,236.071609 154.682663,236.783646 
	C154.899399,247.330139 154.927383,257.709167 154.714172,268.652649 
	C154.269897,269.382172 154.114746,269.584015 154.007507,269.822723 
	C150.207520,269.822723 146.407547,269.822723 142.163269,269.822723 
	C142.163269,262.511841 142.163269,255.268433 142.163269,247.742538 
	C135.985489,247.742538 130.243042,247.742538 124.103043,247.742538 
	C124.103043,254.901642 124.103043,262.167816 124.103043,269.714478 
	C119.660072,269.714478 115.602844,269.714478 111.292679,269.714478 
	C111.292679,251.120804 111.292679,232.583313 111.292679,213.868973 
	C115.494621,213.868973 119.444649,213.868973 123.873734,213.868973 
	C123.873734,221.136261 123.873734,228.375351 123.873734,235.832428 
	C130.082336,235.832428 135.815918,235.832428 142.055252,235.832428 
	C142.055252,229.119324 142.055252,222.513824 142.307343,215.316147 
	C142.770905,214.518494 142.917892,214.274216 143.000397,213.991150 
	C146.370773,213.904053 149.741150,213.816956 153.643768,214.056610 
	C154.333145,214.638351 154.541443,214.840683 154.800919,214.990341 
	C154.862183,221.343445 154.923447,227.696548 155.015442,234.516083 
z"/>
<path fill="#FCFCFC" opacity="1.000000" stroke="none" 
	d="
M392.407532,248.537354 
	C391.206879,249.494202 390.262573,250.190399 389.098145,251.048889 
	C395.494629,257.276917 401.370026,262.997589 407.389923,268.858978 
	C393.415863,274.016541 386.121796,265.295502 378.138245,255.880066 
	C378.138245,261.288483 378.138245,265.345856 378.138245,269.699341 
	C374.016449,269.699341 370.273163,269.699341 366.190918,269.699341 
	C366.190918,250.437149 366.190918,231.068359 366.190918,211.430695 
	C369.991882,211.430695 373.724304,211.430695 377.903320,211.430695 
	C377.903320,222.980331 377.903320,234.373260 377.903320,245.766205 
	C378.181030,246.092041 378.458710,246.417877 378.736420,246.743713 
	C385.257263,237.577164 393.171021,231.933929 405.388916,235.851303 
	C401.082306,240.056503 396.873077,244.166611 392.407532,248.537354 
z"/>
<path fill="#FBFBFB" opacity="1.000000" stroke="none" 
	d="
M339.036133,244.705322 
	C337.741577,247.297165 336.116638,249.587250 335.948273,251.979843 
	C335.541962,257.752991 335.816467,263.574097 335.816467,269.689514 
	C331.777374,269.689514 328.025421,269.689514 323.904480,269.689514 
	C323.904480,258.437592 323.904480,247.057495 323.904480,235.127396 
	C328.061890,235.523209 332.624146,233.368790 336.259308,236.559113 
	C340.093872,235.761826 344.211182,234.075989 348.254883,234.237244 
	C356.745728,234.575851 361.098969,239.706238 361.175262,248.196945 
	C361.235107,254.856766 361.182678,261.517670 361.161652,268.178040 
	C361.160095,268.666260 361.008667,269.154022 360.896851,269.821564 
	C357.117981,269.821564 353.351013,269.821564 349.046356,269.821564 
	C349.046356,263.601196 349.111023,257.497253 349.028961,251.395325 
	C348.939392,244.733765 345.863647,242.569992 339.036133,244.705322 
z"/>
<path fill="#F9F9F9" opacity="1.000000" stroke="none" 
	d="
M243.841949,234.435699 
	C250.373077,233.423370 256.227081,233.937866 261.261261,237.994415 
	C266.251831,242.015839 267.549316,247.469269 267.211365,253.996674 
	C258.822083,253.996674 250.589142,253.996674 242.319748,253.996674 
	C242.909393,260.113861 248.378250,263.837280 253.330231,260.519653 
	C258.673340,256.939972 262.032715,259.237518 266.054260,261.714294 
	C263.327271,268.429901 255.036591,272.147400 245.560455,270.903564 
	C237.056091,269.787292 229.997101,262.412079 229.235733,253.847580 
	C228.476242,245.304245 233.985535,237.829590 243.841949,234.435699 
M253.990982,247.306839 
	C254.206741,246.533325 254.738251,245.154053 254.590866,245.077225 
	C252.400681,243.935623 250.102692,242.152588 247.867203,242.201859 
	C245.913391,242.244904 244.006012,244.395676 242.078125,245.615265 
	C242.346054,246.194733 242.613983,246.774216 242.881912,247.353683 
	C246.285110,247.353683 249.688293,247.353683 253.990982,247.306839 
z"/>
<path fill="#FDFDFD" opacity="1.000000" stroke="none" 
	d="
M282.975861,227.007019 
	C282.975861,237.767166 282.975861,248.028000 282.975861,258.663849 
	C289.507568,258.663849 295.594086,258.663849 301.989227,258.663849 
	C301.989227,262.439880 301.989227,265.857941 301.989227,269.640991 
	C291.668762,269.640991 281.145081,269.640991 270.328491,269.640991 
	C270.328491,251.224594 270.328491,232.713791 270.328491,213.946899 
	C274.353333,213.946899 278.282959,213.946899 282.975861,213.946899 
	C282.975861,218.051071 282.975861,222.279373 282.975861,227.007019 
z"/>
<path fill="#FEFEFE" opacity="1.000000" stroke="none" 
	d="
M305.920898,236.196533 
	C309.800262,235.384064 313.638855,235.054779 317.740906,234.702911 
	C317.740906,246.737076 317.740906,258.094574 317.740906,269.727753 
	C313.952484,269.727753 310.223602,269.727753 305.880127,269.727753 
	C305.880127,258.744263 305.880127,247.712006 305.920898,236.196533 
z"/>
<path fill="#F6F6F6" opacity="1.000000" stroke="none" 
	d="
M305.366089,223.208649 
	C304.359558,219.221039 305.109192,215.804977 308.611023,214.413086 
	C310.740417,213.566696 314.151581,213.608734 315.908722,214.818207 
	C317.671692,216.031708 319.214630,219.415054 318.808411,221.436356 
	C318.355530,223.690033 315.963379,226.285156 313.758728,227.287735 
	C310.275208,228.871872 307.425568,226.740585 305.366089,223.208649 
z"/>
<path fill="#D0D0D0" opacity="1.000000" stroke="none" 
	d="
M345.515289,278.633575 
	C346.843140,278.432068 347.873871,278.432068 348.904602,278.432068 
	C348.960388,278.702393 349.016174,278.972748 349.071960,279.243073 
	C348.110626,279.613678 347.149292,279.984283 346.187958,280.354919 
	C345.655304,280.953918 345.122620,281.552917 344.589966,282.151917 
	C345.956970,282.722900 347.380463,283.191193 348.671021,283.901123 
	C349.522614,284.369629 350.183044,285.185699 350.929047,285.846130 
	C349.794891,286.474915 348.420441,287.859680 347.571869,287.589966 
	C345.082672,286.798767 341.752045,286.010254 344.127563,281.964050 
	C344.676147,281.029694 344.864197,279.883698 345.515289,278.633575 
z"/>
<path fill="#F9F9F9" opacity="1.000000" stroke="none" 
	d="
M142.714050,213.961426 
	C142.917892,214.274216 142.770905,214.518494 142.385910,214.852173 
	C142.284164,214.630814 142.355942,214.281250 142.714050,213.961426 
z"/>
<path fill="#F9F9F9" opacity="1.000000" stroke="none" 
	d="
M154.850067,214.702148 
	C154.541443,214.840683 154.333145,214.638351 154.087341,214.182434 
	C154.298828,214.125687 154.599014,214.269806 154.850067,214.702148 
z"/>
<path fill="#F9F9F9" opacity="1.000000" stroke="none" 
	d="
M154.268188,269.865356 
	C154.114746,269.584015 154.269897,269.382172 154.636948,269.116669 
	C154.710236,269.313446 154.619553,269.610687 154.268188,269.865356 
z"/>
<path fill="#242424" opacity="1.000000" stroke="none" 
	d="
M253.541229,247.330261 
	C249.688293,247.353683 246.285110,247.353683 242.881912,247.353683 
	C242.613983,246.774216 242.346054,246.194733 242.078125,245.615265 
	C244.006012,244.395676 245.913391,242.244904 247.867203,242.201859 
	C250.102692,242.152588 252.400681,243.935623 254.590866,245.077225 
	C254.738251,245.154053 254.206741,246.533325 253.541229,247.330261 
z"/>
</svg>