<svg version="1.1" id="Layer_1" xmlns="http://www.w3.org/2000/svg" xmlns:xlink="http://www.w3.org/1999/xlink" x="0px" y="0px"
	 width="100%" viewBox="0 0 500 125" enable-background="new 0 0 500 125" xml:space="preserve">
<path fill="#FDFDFD" opacity="1.000000" stroke="none" 
	d="
M365.000000,126.000000 
	C244.833374,126.000000 125.166718,125.979607 5.500197,126.094383 
	C1.750843,126.097977 0.886683,125.251869 0.901997,121.499710 
	C1.061167,82.500374 1.042398,43.499996 0.916092,4.500416 
	C0.906431,1.517321 1.517691,0.917347 4.499898,0.919003 
	C168.833130,1.010266 333.166412,1.010249 497.499664,0.919102 
	C500.480591,0.917449 501.093536,1.515639 501.083954,4.499974 
	C500.957855,43.832893 500.957977,83.166489 501.083832,122.499405 
	C501.093384,125.481949 500.484222,126.091843 497.500092,126.083618 
	C453.500305,125.962234 409.500122,126.000000 365.000000,126.000000 
z"/>
<path fill="#050505" opacity="1.000000" stroke="none" 
	d="
M149.776978,97.879288 
	C153.021149,91.294281 156.087921,84.912247 159.384476,78.651199 
	C160.469635,76.590218 160.831894,75.039398 159.520615,72.825859 
	C154.643692,64.593163 150.029343,56.204918 145.163818,47.521965 
	C144.918976,47.026073 144.826752,46.883289 144.837936,46.507454 
	C145.101303,46.227703 145.258591,46.166862 145.421585,46.136341 
	C154.381836,44.458431 161.197342,46.504353 164.017776,56.295238 
	C164.715866,58.718590 166.438538,60.846798 168.075531,63.807518 
	C170.548615,58.551380 172.896164,54.197857 174.647278,49.616371 
	C175.810852,46.572063 177.516403,45.786381 180.583771,45.917522 
	C186.404587,46.166382 192.247925,46.122795 198.073166,45.932560 
	C200.925079,45.839424 202.937881,46.150700 201.929855,50.732224 
	C206.982147,46.103607 211.597382,43.643475 217.572037,45.711365 
	C220.078644,46.578926 220.871582,47.543694 219.306274,49.915501 
	C218.488907,51.154003 217.779266,52.520710 217.322159,53.927387 
	C216.500153,56.456902 215.396606,56.876743 212.654846,56.084484 
	C206.133713,54.200123 202.307861,57.280491 202.136108,64.037292 
	C202.021820,68.533386 201.932312,73.044609 202.177383,77.530167 
	C202.335907,80.431862 201.319122,81.074318 198.560883,81.078773 
	C190.053543,81.092514 190.053741,81.217522 190.053741,72.961159 
	C190.053741,64.820717 190.053741,56.680267 190.053741,48.237984 
	C188.247879,48.946671 187.977325,50.494419 187.370224,51.653866 
	C180.123001,65.494438 172.750702,79.275116 165.841278,93.283630 
	C163.707245,97.610313 161.251129,99.746605 156.386551,98.877617 
	C154.608917,98.560059 152.729782,98.810623 150.449432,98.679718 
	C149.897629,98.414742 149.793350,98.272057 149.776978,97.879288 
z"/>
<path fill="#010101" opacity="1.000000" stroke="none" 
	d="
M144.268097,47.802094 
	C144.169281,58.197506 144.216202,68.173256 144.386581,78.146896 
	C144.421814,80.208580 143.917740,80.930237 141.673203,81.068901 
	C131.664490,81.687218 131.784744,81.778671 131.618454,71.983154 
	C131.543442,67.563751 133.601959,61.867088 130.653168,59.072926 
	C127.978142,56.538185 122.380379,58.708431 118.108139,58.280067 
	C114.491684,57.917465 112.984711,58.919491 113.290756,62.854816 
	C113.650993,67.486992 113.105324,72.189323 113.460793,76.822235 
	C113.743355,80.504990 112.357681,81.156609 109.012634,81.080521 
	C100.674080,80.890877 100.670258,81.058609 100.670258,72.824509 
	C100.670265,58.344639 100.794701,43.862946 100.582672,29.386181 
	C100.529778,25.774952 101.260521,24.531080 105.145378,24.670855 
	C113.366356,24.966640 113.334900,24.721460 113.391510,33.118805 
	C113.421608,37.582817 111.919037,43.544861 114.186562,46.116982 
	C116.823631,49.108303 122.941925,46.653591 127.513351,47.131916 
	C130.686996,47.463993 131.951660,46.534603 131.749069,43.097416 
	C131.446014,37.955811 131.752274,32.781185 131.632187,27.624498 
	C131.583130,25.517307 132.198105,24.850681 134.403381,24.712093 
	C144.357376,24.086554 144.354111,23.998997 144.350494,33.900219 
	C144.349396,36.895939 144.332047,39.891655 144.199905,43.327065 
	C144.723648,44.917152 144.415970,46.167774 144.268097,47.802094 
z"/>
<path fill="#070707" opacity="1.000000" stroke="none" 
	d="
M355.265900,37.007156 
	C355.265930,33.010403 355.474030,29.496012 355.204834,26.018566 
	C354.958008,22.830038 356.192291,22.130600 359.186096,22.138863 
	C367.375214,22.161463 367.375610,22.019165 367.375580,30.187611 
	C367.375549,39.079899 367.375549,47.972187 367.375549,57.587727 
	C372.773071,53.893974 375.321442,47.871937 380.646118,46.268822 
	C384.846985,45.004040 389.732910,46.014595 395.528839,46.014595 
	C390.090790,51.396152 385.617981,56.023365 380.904785,60.391224 
	C378.924744,62.226227 379.106384,63.298092 380.950562,65.033852 
	C386.141296,69.919334 391.166168,74.981049 396.326691,80.042160 
	C382.831360,85.127754 375.736603,76.016891 367.375183,66.596184 
	C367.375183,71.486076 367.240570,74.725494 367.419830,77.947433 
	C367.551880,80.320862 366.793671,81.000610 364.367279,81.082108 
	C355.262238,81.387917 355.265900,81.495827 355.265900,72.488510 
	C355.265900,60.827545 355.265900,49.166584 355.265900,37.007156 
z"/>
<path fill="#050505" opacity="1.000000" stroke="none" 
	d="
M330.401276,46.063042 
	C342.325897,42.548290 350.736603,48.719658 350.777557,60.620537 
	C350.797028,66.277931 350.670776,71.938560 350.831299,77.591469 
	C350.902069,80.083374 350.340179,81.022606 347.585480,81.087029 
	C338.690002,81.295067 338.693207,81.431084 338.693176,72.383492 
	C338.693176,69.388367 338.722382,66.392891 338.686737,63.398186 
	C338.616852,57.524265 336.388885,54.380466 332.344635,54.379177 
	C328.103699,54.377827 325.165741,57.989414 325.120392,63.353195 
	C325.081024,68.011948 324.979218,72.676575 325.164124,77.328316 
	C325.267670,79.933685 324.857849,81.093407 321.772247,81.097816 
	C313.054077,81.110268 313.054291,81.280266 313.054321,72.694733 
	C313.054382,64.874130 313.172516,57.050758 312.989777,49.234428 
	C312.926819,46.542168 313.903015,45.259758 316.331451,46.072701 
	C319.298004,47.065777 323.477020,43.192085 325.559082,48.537952 
	C325.870697,49.338043 328.323578,46.756939 330.401276,46.063042 
z"/>
<path fill="#050505" opacity="1.000000" stroke="none" 
	d="
M234.283646,65.102699 
	C229.572617,65.739166 231.906265,68.093269 232.898483,69.541557 
	C235.077820,72.722664 240.892502,73.262772 244.717911,70.916061 
	C247.478104,69.222801 253.249664,70.043968 255.180435,72.377632 
	C256.548706,74.031403 254.823807,74.785110 254.116760,75.633942 
	C248.442734,82.445808 236.014816,84.136627 228.004974,79.274910 
	C219.848373,74.324112 216.596176,64.707413 220.254364,56.356514 
	C224.038391,47.718361 233.956482,43.163120 243.599731,45.634304 
	C251.610916,47.687248 256.300873,53.479122 256.878998,61.694660 
	C257.057068,64.224800 256.494446,65.242790 253.728592,65.160805 
	C247.407440,64.973427 241.076935,65.101906 234.283646,65.102699 
z"/>
<path fill="#010101" opacity="1.000000" stroke="none" 
	d="
M271.882385,25.179241 
	C272.301147,38.808987 272.451660,52.116817 272.298065,65.421135 
	C272.258545,68.845169 273.088318,70.192230 276.689880,69.894363 
	C280.489990,69.580093 284.353363,70.047318 288.157135,69.755821 
	C291.404541,69.506950 291.983765,70.789787 291.941193,73.736168 
	C291.836304,80.996254 291.988770,80.998497 284.570923,80.998489 
	C277.417786,80.998489 270.260162,80.851860 263.113617,81.069000 
	C260.170929,81.158417 259.585419,80.159302 259.607147,77.412483 
	C259.734772,61.277325 259.790009,45.139057 259.577301,29.005690 
	C259.529816,25.400537 260.594177,24.325893 264.023529,24.726913 
	C266.487335,25.015022 269.006500,24.829988 271.882385,25.179241 
z"/>
<path fill="#080808" opacity="1.000000" stroke="none" 
	d="
M307.372681,71.920425 
	C307.372650,73.073792 307.372650,73.739639 307.372650,74.405479 
	C307.372528,81.015221 307.358185,80.752518 300.926178,81.103439 
	C296.566864,81.341286 294.880066,80.350266 295.136688,75.546486 
	C295.588837,67.081161 295.402832,58.570808 295.191589,50.086586 
	C295.111786,46.881973 295.912933,45.829430 299.287598,45.893864 
	C307.369080,46.048183 307.372772,45.854965 307.372711,53.954575 
	C307.372711,59.780685 307.372681,65.606796 307.372681,71.920425 
z"/>
<path fill="#070707" opacity="1.000000" stroke="none" 
	d="
M404.861633,66.425461 
	C411.080078,68.336906 413.646912,72.489761 411.616394,77.137337 
	C410.154022,80.484367 407.454590,82.297211 403.717316,81.949409 
	C400.253601,81.627075 397.827393,79.685219 396.985443,76.289352 
	C396.111694,72.765137 397.028473,69.639366 400.291534,67.695137 
	C401.516479,66.965263 403.079987,66.803635 404.861633,66.425461 
z"/>
<path fill="#0B0B0B" opacity="1.000000" stroke="none" 
	d="
M297.648010,37.457680 
	C294.102264,34.474304 293.364288,31.148273 295.707306,27.584265 
	C297.615295,24.682026 300.483429,23.612762 303.919067,24.835825 
	C307.613251,26.150936 309.508392,29.945614 308.332336,33.573540 
	C306.892303,38.015827 303.394775,39.400116 297.648010,37.457680 
z"/>
<path fill="#D1D1D1" opacity="1.000000" stroke="none" 
	d="
M202.662491,97.644791 
	C200.091721,99.564423 198.395386,98.290779 196.799561,96.692551 
	C195.639694,95.530922 196.277893,94.679749 197.300583,93.822525 
	C198.552124,92.773468 199.098511,89.851059 201.385666,91.551605 
	C203.085373,92.815361 205.014160,94.768799 202.662491,97.644791 
z"/>
<path fill="#D1D1D1" opacity="1.000000" stroke="none" 
	d="
M273.105347,91.100533 
	C275.059357,91.227791 275.375549,92.790276 276.225616,93.728653 
	C277.777863,95.442238 276.397827,96.913223 275.204498,97.913826 
	C273.557190,99.295067 272.010681,98.707672 270.413574,97.243683 
	C268.876923,95.835121 268.868744,94.952728 270.405975,93.692062 
	C271.285583,92.970703 271.971191,92.012787 273.105347,91.100533 
z"/>
<path fill="#D1D1D1" opacity="1.000000" stroke="none" 
	d="
M380.670654,93.643433 
	C382.095215,92.613686 382.547272,89.660416 384.605896,91.725304 
	C385.772888,92.895805 388.051178,94.280502 386.200867,96.736572 
	C384.997528,98.333801 383.536621,99.539314 381.744385,98.166389 
	C380.569427,97.266304 377.312592,96.368073 380.670654,93.643433 
z"/>
<path fill="#B6B6B6" opacity="1.000000" stroke="none" 
	d="
M336.488586,98.647278 
	C330.766846,98.153343 331.120148,95.836121 334.426727,89.750595 
	C335.901642,90.388512 335.728363,91.846985 336.088623,93.385872 
	C335.704437,94.291206 335.772400,94.629631 336.792908,94.772781 
	C337.047882,94.912163 337.014038,94.973160 337.043945,94.955246 
	C337.767700,96.160645 338.041443,97.352409 336.488586,98.647278 
z"/>
<path fill="#2A2A2A" opacity="1.000000" stroke="none" 
	d="
M246.808228,98.705498 
	C243.084671,97.461739 245.040131,94.118301 244.070801,91.769684 
	C244.725708,91.502808 244.859116,89.792778 245.614182,90.674522 
	C246.019196,91.147507 247.857483,91.577682 246.754532,93.099266 
	C245.443481,94.907906 245.720276,96.739304 246.808228,98.705498 
z"/>
<path fill="#626262" opacity="1.000000" stroke="none" 
	d="
M287.448425,98.266754 
	C287.187286,96.918159 287.070251,95.920692 287.112823,94.930077 
	C287.165924,93.693924 286.727478,91.800766 288.753540,92.016922 
	C291.767181,92.338440 289.027527,93.951477 289.001434,94.822510 
	C288.963715,96.079651 290.252197,98.168686 287.448425,98.266754 
z"/>
<path fill="#444444" opacity="1.000000" stroke="none" 
	d="
M336.531921,98.906609 
	C336.717010,97.811752 337.629517,96.810616 336.851379,95.239944 
	C338.293335,95.690361 340.649200,95.286148 340.310333,97.642456 
	C340.005676,99.760689 337.730682,97.662697 336.531921,98.906609 
z"/>
<path fill="#262626" opacity="1.000000" stroke="none" 
	d="
M214.538483,95.756126 
	C214.724564,93.379936 214.109100,91.379333 215.538513,88.302826 
	C215.538513,92.451271 215.538513,95.418449 215.538513,98.500412 
	C214.310318,98.070786 214.671753,97.027107 214.538483,95.756126 
z"/>
<path fill="#676767" opacity="1.000000" stroke="none" 
	d="
M293.702942,94.151917 
	C293.879303,95.954651 294.438507,97.445007 292.656372,99.414276 
	C291.940002,96.973351 290.895111,95.278641 293.702942,94.151917 
z"/>
<path fill="#060606" opacity="1.000000" stroke="none" 
	d="
M144.250534,47.904907 
	C144.050278,47.034271 144.021957,45.846031 144.035660,44.212276 
	C144.225891,44.423862 144.374115,45.080967 144.731842,46.006233 
	C144.967880,46.472248 144.986267,46.670853 145.003845,47.019531 
	C144.814972,47.308342 144.618713,47.447823 144.250534,47.904907 
z"/>
<path fill="#444444" opacity="1.000000" stroke="none" 
	d="
M337.030334,94.630417 
	C335.967834,95.780609 335.788055,95.030312 335.891846,93.939957 
	C336.406830,93.935287 336.709808,94.141983 337.030334,94.630417 
z"/>
<path fill="#626262" opacity="1.000000" stroke="none" 
	d="
M291.492249,91.503555 
	C291.463654,91.488647 291.520874,91.518456 291.492249,91.503555 
z"/>
<path fill="#060606" opacity="1.000000" stroke="none" 
	d="
M149.674835,97.751007 
	C149.864868,97.629196 149.949814,98.090881 149.975861,98.324150 
	C149.176926,98.822166 149.368744,98.318871 149.674835,97.751007 
z"/>
<path fill="#DCDCDC" opacity="1.000000" stroke="none" 
	d="
M233.551651,54.437256 
	C237.589508,52.126625 241.150818,51.895641 244.007401,55.584538 
	C245.163269,57.077183 245.623596,58.692505 242.627365,58.596485 
	C239.979797,58.511635 237.326950,58.553638 234.677048,58.588226 
	C230.485687,58.642937 231.798416,56.713810 233.551651,54.437256 
z"/>
</svg>