<svg version="1.1" id="Layer_1" xmlns="http://www.w3.org/2000/svg" xmlns:xlink="http://www.w3.org/1999/xlink" x="0px" y="0px"
	 width="100%" viewBox="0 0 500 113" enable-background="new 0 0 500 113" xml:space="preserve">
<path fill="#1C1C1C" opacity="1.000000" stroke="none" 
	d="
M366.000000,114.000000 
	C245.500031,114.000000 125.500046,113.979668 5.500197,114.094376 
	C1.750846,114.097961 0.883649,113.252281 0.901485,109.499641 
	C1.067840,74.500435 1.047083,39.499954 0.915704,4.500458 
	C0.904505,1.517030 1.517704,0.917348 4.499901,0.919004 
	C168.833130,1.010266 333.166412,1.010249 497.499664,0.919102 
	C500.480591,0.917449 501.095428,1.515373 501.084351,4.500021 
	C500.953247,39.832859 500.953400,75.166534 501.084229,110.499367 
	C501.095276,113.482231 500.484253,114.091949 497.500092,114.083641 
	C453.833649,113.961952 410.166779,114.000000 366.000000,114.000000 
z"/>
<path fill="#F6F6F6" opacity="1.000000" stroke="none" 
	d="
M154.589645,41.992950 
	C166.182159,39.647797 172.606049,44.854343 175.982544,55.122124 
	C176.467590,56.597179 177.156418,58.201576 178.841217,59.308037 
	C181.131561,54.430946 183.486862,49.665211 185.599655,44.794292 
	C186.451294,42.830872 187.526306,42.033466 189.706482,42.075905 
	C196.364761,42.205517 203.033386,42.291611 209.685074,42.045532 
	C212.590714,41.938038 213.019547,43.397541 212.980759,46.241020 
	C217.577301,42.113705 222.264145,39.840195 228.179962,41.841492 
	C230.775009,42.719395 231.311417,43.849110 229.922363,46.142315 
	C229.149887,47.417622 228.486603,48.778732 227.939224,50.166306 
	C227.021896,52.491642 226.040985,53.187355 223.171860,52.346497 
	C216.570587,50.411858 212.970444,53.463718 212.843811,60.387974 
	C212.764603,64.718842 212.619705,69.065704 212.896515,73.380219 
	C213.101166,76.570053 211.920105,77.254410 208.933578,77.251068 
	C200.524551,77.241653 200.524384,77.380737 200.524368,68.905693 
	C200.524353,61.090420 200.524368,53.275143 200.524368,45.383957 
	C198.401276,45.488194 198.407867,47.131290 197.867615,48.157719 
	C190.583252,61.997242 183.164566,75.772041 176.228317,89.785202 
	C174.137695,94.008842 171.633514,95.720528 167.085815,95.098785 
	C164.840790,94.791855 162.519119,95.045509 159.338120,95.045509 
	C162.953064,88.048409 166.079666,81.682381 169.518158,75.489510 
	C170.974350,72.866806 171.035278,70.836395 169.461411,68.192680 
	C164.695923,60.187885 160.234314,52.002190 155.291534,43.929581 
	C153.188324,43.851494 153.468979,42.996883 154.589645,41.992950 
z"/>
<path fill="#FDFDFD" opacity="1.000000" stroke="none" 
	d="
M154.973877,41.539597 
	C154.333878,42.427200 154.011612,42.930260 154.733032,43.815239 
	C154.936844,54.343224 154.944916,64.714272 154.878433,75.549576 
	C154.691742,76.185226 154.579590,76.356613 154.234665,76.728546 
	C142.042099,77.793633 142.042099,77.793633 142.042099,66.166870 
	C142.042099,54.698860 142.042099,54.698864 130.471939,54.701065 
	C123.973701,54.702301 123.973549,54.702297 123.973015,61.286587 
	C123.972687,65.265472 123.724976,69.264610 124.047867,73.217110 
	C124.328697,76.654823 122.981750,77.519012 119.863228,77.200050 
	C117.565430,76.965027 115.225945,77.137619 112.450340,77.024963 
	C111.840500,76.789604 111.685349,76.657837 111.369667,76.266342 
	C111.153694,58.718201 111.150215,41.429295 110.988747,24.141861 
	C110.963501,21.438995 111.939957,20.880083 114.443665,20.812353 
	C123.975464,20.554502 123.944443,20.461477 123.985794,29.971022 
	C124.004539,34.282139 124.161873,38.592648 124.618301,43.188553 
	C130.445953,44.327282 135.913010,44.300110 141.694077,43.259296 
	C142.018906,36.697197 142.105392,30.373590 142.003281,24.053030 
	C141.966568,21.780697 142.568024,20.934893 145.035278,20.804888 
	C154.973389,20.281231 154.967606,20.179676 154.968231,30.089128 
	C154.968475,33.749569 154.971191,37.410011 154.973877,41.539597 
z"/>
<path fill="#F9F9F9" opacity="1.000000" stroke="none" 
	d="
M365.854797,48.999947 
	C365.854980,39.846382 365.981812,31.189999 365.789093,22.540735 
	C365.718414,19.367849 366.495026,18.222929 369.899719,18.276402 
	C377.974365,18.403217 377.977386,18.213324 377.977386,26.473688 
	C377.977386,35.288841 377.977356,44.103996 377.977356,54.619518 
	C385.313049,45.437786 392.781158,38.670578 404.619385,42.894451 
	C402.571686,46.458481 398.938782,49.066532 395.926666,52.176407 
	C389.337769,58.979221 389.268799,58.922344 396.117950,65.757446 
	C399.613922,69.246246 403.131683,72.713173 407.760132,77.300537 
	C401.075806,76.566864 395.335571,79.093201 390.703613,75.797058 
	C386.301880,72.664749 382.906097,68.118874 378.671295,63.788879 
	C377.418152,67.615723 378.056244,71.028641 378.038361,74.349281 
	C378.026764,76.497375 377.394531,77.102493 375.221771,77.230194 
	C365.849670,77.781013 365.854797,77.868393 365.854797,68.471169 
	C365.854797,62.147430 365.854797,55.823689 365.854797,48.999947 
z"/>
<path fill="#FAFAFA" opacity="1.000000" stroke="none" 
	d="
M325.471741,42.150024 
	C329.251312,43.410233 333.935303,39.362507 336.214294,44.757446 
	C337.067169,44.292931 337.931702,43.848530 338.771118,43.360840 
	C349.448486,37.157436 361.077393,43.660629 361.180328,55.922348 
	C361.229218,61.744682 361.002594,67.576233 361.265656,73.387085 
	C361.407104,76.511497 360.445801,77.277847 357.385498,77.249458 
	C349.047668,77.172081 349.047943,77.330208 349.045441,68.927505 
	C349.044312,65.101196 349.156616,61.269714 348.994537,57.450039 
	C348.836151,53.717636 347.148407,51.040382 343.050537,50.786942 
	C339.268372,50.553028 336.047058,53.462891 335.895172,57.510166 
	C335.695618,62.826538 335.695923,68.159698 335.871643,73.477005 
	C335.961426,76.193886 335.294098,77.207054 332.333710,77.248505 
	C323.536865,77.371689 323.538879,77.518684 323.538910,68.813057 
	C323.538940,61.326679 323.483643,53.839531 323.587128,46.354584 
	C323.607208,44.903793 322.630737,42.890076 325.471741,42.150024 
z"/>
<path fill="#F7F7F7" opacity="1.000000" stroke="none" 
	d="
M229.625031,63.226784 
	C228.425522,52.407780 234.300552,43.854355 244.133255,41.562119 
	C253.802032,39.308098 263.265198,43.948380 266.221619,52.395660 
	C266.441132,53.022781 266.697754,53.644127 266.841431,54.289459 
	C268.309875,60.884930 267.936157,61.355656 261.302002,61.356895 
	C255.806274,61.357918 250.309296,61.428982 244.815277,61.332184 
	C241.404846,61.272091 241.701172,62.924068 242.910919,65.051033 
	C244.820770,68.408867 250.889771,70.057495 254.441803,67.289474 
	C257.804199,64.669205 260.178284,65.731964 263.291779,67.155785 
	C266.664429,68.698112 266.613556,70.156807 264.186554,72.510979 
	C258.347656,78.174644 251.197647,79.289413 243.777267,77.629349 
	C236.445877,75.989182 231.536255,71.175430 229.625031,63.226784 
z"/>
<path fill="#FCFCFC" opacity="1.000000" stroke="none" 
	d="
M282.975861,52.987766 
	C283.204834,57.440151 281.333893,62.507282 283.695374,65.057930 
	C286.107941,67.663803 291.235565,65.784943 295.165375,65.872086 
	C302.268433,66.029602 303.949738,68.285980 302.357941,75.480782 
	C301.899170,77.554413 300.620087,77.136734 299.402863,77.141159 
	C290.585999,77.173203 281.767578,77.070152 272.952881,77.212181 
	C270.392853,77.253426 269.990021,76.211395 269.999817,73.986771 
	C270.073059,57.351284 270.069733,40.715202 270.004333,24.079649 
	C269.995514,21.848827 270.497070,20.935547 273.000366,20.798157 
	C282.981628,20.250355 282.975861,20.145077 282.975861,30.031574 
	C282.975861,37.517689 282.975861,45.003799 282.975861,52.987766 
z"/>
<path fill="#FCFCFC" opacity="1.000000" stroke="none" 
	d="
M305.869659,70.945389 
	C305.869720,62.307735 305.992249,54.159485 305.805450,46.018337 
	C305.737122,43.041401 306.460968,42.030128 309.638245,42.054436 
	C317.966919,42.118149 317.968262,41.942524 317.968262,50.423409 
	C317.968231,58.070145 317.811859,65.721642 318.044678,73.361290 
	C318.138641,76.445671 317.277496,77.674583 314.191528,77.178513 
	C313.381317,77.048264 312.509430,77.033325 311.704987,77.180069 
	C306.998260,78.038620 304.877014,76.337692 305.869659,70.945389 
z"/>
<path fill="#F5F5F5" opacity="1.000000" stroke="none" 
	d="
M316.783386,22.359446 
	C319.867096,25.841486 320.108551,29.249983 317.317230,32.488354 
	C315.170746,34.978634 312.319092,35.717422 309.198334,34.258640 
	C305.949188,32.739841 304.514771,30.120401 305.018494,26.572468 
	C305.779968,21.209158 310.771973,19.289116 316.783386,22.359446 
z"/>
<path fill="#636363" opacity="1.000000" stroke="none" 
	d="
M344.338989,87.110657 
	C345.157867,84.736855 346.589783,85.952850 347.614716,86.371605 
	C349.622498,87.191948 347.592072,87.647888 347.331573,88.312233 
	C346.323578,90.882683 348.440216,91.796204 349.953094,92.952286 
	C350.580231,93.431564 351.667389,93.540596 351.516602,94.577194 
	C351.311890,95.984428 350.061981,95.566971 349.142731,95.681328 
	C347.353668,95.903877 345.286896,96.667908 344.008636,94.982323 
	C342.760651,93.336662 342.886810,91.371193 344.433990,89.703728 
	C345.121124,88.963211 344.748596,88.172142 344.338989,87.110657 
z"/>
<path fill="#303030" opacity="1.000000" stroke="none" 
	d="
M392.204163,93.387543 
	C393.710236,92.926331 394.902252,92.415337 396.131470,91.888382 
	C394.771729,88.787437 392.015289,91.903709 390.279938,90.100555 
	C391.329437,87.329742 393.165283,86.110428 395.928680,87.698547 
	C398.294342,89.058075 398.646698,91.358177 397.550049,93.787407 
	C396.294586,96.568451 393.949402,96.524971 391.655579,95.569794 
	C390.649109,95.150696 388.862732,93.768181 392.204163,93.387543 
z"/>
<path fill="#323232" opacity="1.000000" stroke="none" 
	d="
M214.376999,89.365761 
	C213.628052,92.955368 209.842651,87.983002 209.118927,91.728180 
	C210.443985,93.821083 212.887817,92.318703 214.990982,92.967819 
	C214.148224,96.485481 211.736694,96.665756 209.359726,95.498024 
	C206.762466,94.222061 205.968857,91.647522 207.676605,89.233093 
	C209.522232,86.623749 211.955841,86.367233 214.376999,89.365761 
z"/>
<path fill="#323232" opacity="1.000000" stroke="none" 
	d="
M286.385071,88.421127 
	C287.654968,89.565712 288.505920,90.622414 286.281006,90.769997 
	C284.892487,90.862099 283.408905,89.758865 282.139984,91.279976 
	C283.249420,94.220016 286.081116,92.072777 288.046997,93.028908 
	C287.042053,96.501755 284.684784,96.624710 282.245148,95.463699 
	C280.047394,94.417793 279.169403,92.115486 280.273438,89.998795 
	C281.418701,87.803017 283.271637,85.803429 286.385071,88.421127 
z"/>
<path fill="#F6F6F6" opacity="1.000000" stroke="none" 
	d="
M141.545929,43.107674 
	C141.828247,43.881706 141.412384,44.807373 140.527771,44.796101 
	C135.451523,44.731422 130.313370,45.947613 125.146263,43.813198 
	C130.348480,43.381027 135.716705,43.288383 141.545929,43.107674 
z"/>
<path fill="#B4B4B4" opacity="1.000000" stroke="none" 
	d="
M255.008286,92.568565 
	C255.475021,90.443420 252.989166,88.194443 255.419586,86.893211 
	C257.287476,85.893150 257.765015,87.715950 257.761658,89.156418 
	C257.759491,90.088837 257.321686,91.028419 257.031311,91.949715 
	C256.733398,92.894997 258.153076,94.458130 256.252228,94.742699 
	C255.388336,94.872040 255.038467,93.802605 255.008286,92.568565 
z"/>
<path fill="#B4B4B4" opacity="1.000000" stroke="none" 
	d="
M304.046753,89.518852 
	C299.218445,88.199440 300.306488,92.608910 299.085907,95.497284 
	C297.294678,92.819626 297.306671,90.177612 298.590240,88.508827 
	C299.252075,87.648346 302.534485,86.178963 304.046753,89.518852 
z"/>
<path fill="#A5A5A5" opacity="1.000000" stroke="none" 
	d="
M197.028473,91.615517 
	C194.173035,91.509773 190.762955,91.790047 190.894775,87.394913 
	C190.921555,86.502251 191.523270,85.757072 192.420929,85.686340 
	C194.207901,85.545547 193.378204,86.573929 193.271774,87.528648 
	C192.972412,90.214523 196.686707,89.087379 197.028473,91.615517 
z"/>
<path fill="#B5B5B5" opacity="1.000000" stroke="none" 
	d="
M224.983643,92.704399 
	C225.176086,89.967049 224.504303,87.544327 226.131638,83.989326 
	C227.402985,88.035576 226.910843,90.878052 226.906876,93.655495 
	C226.905884,94.345596 226.478821,95.045319 225.741882,94.725067 
	C225.338577,94.549805 225.231461,93.692986 224.983643,92.704399 
z"/>
<path fill="#AFAFAF" opacity="1.000000" stroke="none" 
	d="
M242.029175,91.122925 
	C242.188431,89.799744 241.838730,88.238068 243.175339,88.437157 
	C244.672455,88.660149 243.992416,90.314072 244.024857,91.340256 
	C244.058319,92.398689 244.321426,93.904160 242.516724,93.759216 
	C242.295059,93.741417 242.186371,92.317047 242.029175,91.122925 
z"/>
<path fill="#A5A5A5" opacity="1.000000" stroke="none" 
	d="
M194.079910,95.623718 
	C193.048218,95.500565 192.659225,95.145424 193.333786,94.435883 
	C193.781967,93.964485 194.500031,93.666512 194.945663,94.239754 
	C195.382950,94.802238 195.078354,95.406036 194.079910,95.623718 
z"/>
<path fill="#B4B4B4" opacity="1.000000" stroke="none" 
	d="
M304.077942,89.881577 
	C304.856079,91.188530 304.917725,92.546257 304.264221,94.660156 
	C304.264221,92.807213 304.264221,91.654930 304.196228,90.158791 
	C304.128235,89.814926 304.101013,89.864906 304.077942,89.881577 
z"/>
<path fill="#A5A5A5" opacity="1.000000" stroke="none" 
	d="
M194.874725,85.810104 
	C195.937531,85.730232 196.817993,85.740273 196.845245,86.778214 
	C196.851562,87.018562 196.582779,87.474770 196.436035,87.476639 
	C195.483902,87.488815 194.655792,87.235558 194.874725,85.810104 
z"/>
<path fill="#AFAFAF" opacity="1.000000" stroke="none" 
	d="
M240.933929,95.442368 
	C240.913818,95.466911 240.958710,95.461388 240.933929,95.442368 
z"/>
<path fill="#F6F6F6" opacity="1.000000" stroke="none" 
	d="
M154.279678,76.969574 
	C154.097305,76.662903 154.250565,76.435745 154.632782,76.130730 
	C154.721741,76.345909 154.639603,76.677994 154.279678,76.969574 
z"/>
<path fill="#F6F6F6" opacity="1.000000" stroke="none" 
	d="
M111.156311,76.280487 
	C111.456757,76.137749 111.658325,76.319855 111.904755,76.737152 
	C111.698257,76.799019 111.400871,76.676682 111.156311,76.280487 
z"/>
<path fill="#A5A5A5" opacity="1.000000" stroke="none" 
	d="
M196.966644,92.015045 
	C197.085251,92.160805 197.224274,92.289894 197.363297,92.418991 
	C197.278976,92.363342 197.194672,92.307693 197.064514,92.104126 
	C197.018661,91.956207 196.987061,91.998375 196.966644,92.015045 
z"/>
<path fill="#3D3D3D" opacity="1.000000" stroke="none" 
	d="
M244.862000,54.741150 
	C241.314346,54.384426 242.518250,52.549458 243.545715,51.341217 
	C245.899445,48.573357 248.966095,48.347084 252.142365,49.763397 
	C253.701263,50.458515 255.229279,51.706505 254.958206,53.497803 
	C254.630051,55.666264 252.547577,54.582485 251.240875,54.699120 
	C249.262360,54.875725 247.256424,54.744759 244.862000,54.741150 
z"/>
</svg>